<svg width="80" height="20" viewBox="0 0 80 20" xmlns="http://www.w3.org/2000/svg"><title>Shape</title><path d="M7.64 15.58c-.38.425-.916.642-1.607.652H4.035V3.457h1.353c1.692 0 2.538.848 2.538 2.542 0 .737-.203 1.326-.608 1.764-.405.439-.948.659-1.63.659h-.307v2.86h.307c1.681 0 2.522.833 2.522 2.498 0 .777-.19 1.377-.57 1.8zm4.142-3.904c-.438-.736-1.2-1.357-2.287-1.862.897-.514 1.55-1.125 1.958-1.831.409-.706.613-1.625.613-2.755 0-1.393-.516-2.54-1.547-3.444C9.489.881 8.165.43 6.551.43H0v18.905h7.508c1.385 0 2.553-.46 3.504-1.377.952-.919 1.428-2.049 1.428-3.39 0-1.192-.22-2.155-.658-2.892zm15.028 2.216c0 1.761-.528 3.144-1.582 4.15-1.055 1.005-2.517 1.508-4.386 1.508-1.94 0-3.432-.515-4.476-1.546-1.044-1.03-1.567-2.506-1.567-4.427V.43h4.079v12.5c0 .881.172 1.56.517 2.034.345.475.827.713 1.447.713.58 0 1.037-.23 1.372-.69.334-.46.502-1.081.502-1.861V.43h4.094v13.462zm11.12-8.113c-1.079-1.264-2.111-1.896-3.098-1.896-.444 0-.839.147-1.186.44-.348.293-.522.622-.522.986 0 .657.55 1.436 1.647 2.336 1.148.92 1.964 1.646 2.448 2.176a6.22 6.22 0 0 1 1.163 1.874c.292.718.438 1.502.438 2.351 0 1.669-.53 3.039-1.594 4.111-1.062 1.072-2.43 1.608-4.102 1.608-1.37 0-2.71-.49-4.019-1.471v-4.475c1.26 1.375 2.519 2.063 3.778 2.063.564 0 1.034-.157 1.412-.47.378-.314.567-.698.567-1.154 0-.677-.483-1.43-1.45-2.26-1.542-1.334-2.552-2.328-3.03-2.98a7.763 7.763 0 0 1-1.073-1.972 5.927 5.927 0 0 1-.355-2.01c0-1.456.509-2.66 1.526-3.61C31.498.476 32.792 0 34.363 0c1.189 0 2.377.344 3.566 1.031v4.748h.001zm11.829-1.656H45v3.86h4.081v3.511h-4.08v7.841h-4.036V.43h8.794v3.693zm2.144 5.676c0-2.664.283-4.618.848-5.864.564-1.246 1.314-2.213 2.25-2.902C55.938.344 57.119 0 58.545 0c1.179 0 2.13.2 2.852.6.723.4 1.395.983 2.014 1.747.619.765 1.072 1.712 1.359 2.841.287 1.13.431 2.626.431 4.49 0 3.818-.622 6.454-1.865 7.907-1.243 1.454-2.85 2.18-4.82 2.18-2.012 0-3.616-.752-4.815-2.256-1.198-1.504-1.798-4.074-1.798-7.71zm4.235-1.155V9.86c0 1.995.064 3.31.193 3.942.129.633.404 1.132.825 1.496.42.365.923.547 1.508.547.475 0 .911-.176 1.307-.532.396-.354.674-.893.832-1.617.158-.724.238-2.013.238-3.867 0-1.66-.067-2.843-.2-3.547-.134-.704-.404-1.274-.81-1.71a1.956 1.956 0 0 0-1.486-.653c-.852 0-1.466.378-1.842 1.132-.377.755-.565 1.952-.565 3.593zm20.483 2.14c1.118-.616 1.93-1.3 2.436-2.052.507-.752.76-1.713.76-2.884a6.16 6.16 0 0 0-.677-2.8c-.452-.898-1.208-1.559-2.27-1.983A8.54 8.54 0 0 0 73.68.43h-6.12v18.905h4.112V3.457h1.608c1.485 0 2.227.903 2.227 2.71 0 .797-.176 1.455-.53 1.975-.3.441-.924.694-1.933.76v2.499l2.771 7.934H80l-3.38-8.552.001.001z" fill="#424543" fill-rule="evenodd"/></svg>