<svg width="36" height="33" viewBox="0 0 36 33" xmlns="http://www.w3.org/2000/svg"><title>Shape</title><path d="M7.783 21.295l.094-.16H0v.741h6.605c.51 0 .971-.227 1.178-.58v-.001zm7.396-5.722H0v1.298h16.487l-.326-.728a1.138 1.138 0 0 0-.982-.57zM32.178 7.17C28.365 0 26.205 0 25.392 0H4.105A4.113 4.113 0 0 0 0 4.112v3.214h17.218c.71.001 1.542.075 2.41.876l4.172.011c.592 0 1.15.238 1.57.668.421.43.653 1.002.651 1.608l-.002.1v1.872c0 .63-.536 1.174-1.276 1.295l-.206.034.007-3.387h.431a1.196 1.196 0 0 0-1.18-1.125l-3.138-.006c2.86 3.293 5.749 9.115 5.747 11.421l-.001.333h-1.748v1.17l1.745.002-.006 2.604c0 .314-.067.9-.95.897l-6.396-.012a4.126 4.126 0 0 0-1.146-3.378 3.975 3.975 0 0 0-2.867-1.207c-2.21 0-4.014 1.84-4.02 4.103 0 .157.01.296.027.45-2.98-.005-7.472.006-11.042 0v3.234A4.113 4.113 0 0 0 4.105 33h21.287c.815 0 2.978 0 6.79-7.259 1.549-2.947 3.356-7.157 3.356-9.32 0-2.163-1.81-6.335-3.36-9.25V7.17zM18.025 25.898c-.226 1.476-1.48 2.611-2.99 2.611h-.003a2.964 2.964 0 0 1-2.133-.906 3.085 3.085 0 0 1-.844-1.716 3.207 3.207 0 0 1-.038-.467c.005-1.697 1.356-3.078 3.027-3.078.806 0 1.578.327 2.139.907.684.7.996 1.683.842 2.649zm-2.91-1.797a1.385 1.385 0 0 0-1.3 1.843c.185.544.693.937 1.293.938.6 0 1.111-.39 1.3-.933a1.385 1.385 0 0 0-1.293-1.848zm6.065-4.642l3.367.007c-.704-2.55-2.715-6.268-4.836-8.957-.635-.804-1.362-1.503-2.647-1.61H0V12h15.364c.302 0 .887.08.887.08 2.078.417 3.494 4.421 4.929 7.379z" fill="#C30D0D" fill-rule="evenodd"/></svg>